<?xml version="1.0" encoding="utf-8"?>
<!-- Generator: Adobe Illustrator 23.0.3, SVG Export Plug-In . SVG Version: 6.00 Build 0)  -->
<svg version="1.1" xmlns="http://www.w3.org/2000/svg" xmlns:xlink="http://www.w3.org/1999/xlink" x="0px" y="0px"
	 viewBox="0 0 34 34" style="enable-background:new 0 0 34 34;" xml:space="preserve">
<g id="Layer_6">
	<g>
		<path d="M22.15,21.89c0,4.42-1.63,6.63-4.9,6.63c-1.02,0-1.87-0.19-2.55-0.58c-0.68-0.38-1.18-0.93-1.5-1.65s-0.54-1.45-0.66-2.19
			s-0.19-1.61-0.19-2.58c0-2.04,0.32-3.51,0.95-4.42c0.38-0.52,0.96-0.91,1.73-1.16c-0.84-0.34-1.43-0.83-1.77-1.46
			c-0.48-0.86-0.71-2.06-0.71-3.6c0-1.97,0.43-3.45,1.29-4.42c0.7-0.77,1.89-1.16,3.57-1.16s2.85,0.49,3.52,1.48
			c0.67,0.99,1,2.36,1,4.13c0,1.52-0.24,2.71-0.71,3.57c-0.34,0.63-0.92,1.12-1.73,1.46c0.77,0.27,1.34,0.66,1.7,1.16
			C21.83,17.96,22.15,19.56,22.15,21.89z M19.12,21.59c0-2.65-0.62-3.98-1.87-3.98c-0.45,0-0.82,0.15-1.11,0.44
			c-0.28,0.29-0.47,0.73-0.56,1.31c-0.09,0.58-0.15,1.01-0.17,1.31c-0.02,0.29-0.03,0.73-0.03,1.29c0,2.58,0.62,3.88,1.87,3.88
			c0.23,0,0.44-0.04,0.63-0.12c0.19-0.08,0.35-0.2,0.48-0.37c0.12-0.17,0.24-0.33,0.34-0.48s0.17-0.37,0.22-0.66
			c0.04-0.29,0.08-0.52,0.12-0.66c0.03-0.15,0.06-0.39,0.07-0.73c0.01-0.34,0.02-0.55,0.02-0.63C19.12,22.1,19.12,21.9,19.12,21.59z
			 M18.92,11.11c0-2.11-0.56-3.16-1.67-3.16c-1.11,0-1.67,1.05-1.67,3.16c0,2.33,0.55,3.5,1.67,3.5
			C18.36,14.62,18.92,13.45,18.92,11.11z"/>
	</g>
</g>
<g id="Layer_3">
</g>
</svg>
