<?xml version="1.0" encoding="utf-8"?>
<!-- Generator: Adobe Illustrator 23.0.3, SVG Export Plug-In . SVG Version: 6.00 Build 0)  -->
<svg version="1.1" xmlns="http://www.w3.org/2000/svg" xmlns:xlink="http://www.w3.org/1999/xlink" x="0px" y="0px"
	 viewBox="0 0 34 34" style="enable-background:new 0 0 34 34;" xml:space="preserve">
<g id="Layer_6">
	<g>
		<path d="M17.01,8.22l-0.75,5.68c3.94,0,5.92,2.17,5.92,6.49c0,2.27-0.5,4.19-1.51,5.76s-2.59,2.36-4.74,2.36
			c-1.02,0-2.22-0.32-3.6-0.95l0.75-2.69c1.02,0.54,1.9,0.82,2.65,0.82c1.13,0,1.95-0.52,2.46-1.56c0.51-1.04,0.76-2.2,0.76-3.47
			c0-2.9-1.25-4.35-3.74-4.35c-0.57,0-1.18,0.09-1.84,0.27l1.29-11.02h7.21v2.65H17.01z"/>
	</g>
</g>
<g id="Layer_3">
</g>
</svg>
