<?xml version="1.0" encoding="utf-8"?>
<!-- Generator: Adobe Illustrator 23.0.3, SVG Export Plug-In . SVG Version: 6.00 Build 0)  -->
<svg version="1.1" xmlns="http://www.w3.org/2000/svg" xmlns:xlink="http://www.w3.org/1999/xlink" x="0px" y="0px"
	 viewBox="0 0 26 26" style="enable-background:new 0 0 26 26;" xml:space="preserve">
<style type="text/css">
	.st0{display:none;}
	.st1{fill:#FFFFFF;}
	.st2{fill:#3953A4;}
	.st3{fill:#37B44A;}
	.st4{fill:#ED2024;}
	.st5{fill:#30429B;}
	.st6{fill:#C22026;}
	.st7{fill:#25BDBF;}
	.st8{fill:#828383;}
</style>
<g id="Layer_1">
</g>
<g id="Layer_2" class="st0">
</g>
<g id="Layer_5">
	<rect x="20" y="12" width="4" height="2"/>
	<rect x="12" y="2" width="2" height="4"/>
	<rect x="2" y="12" width="4" height="2"/>
	<rect x="12" y="20" width="2" height="4"/>
	<rect x="9" y="6" width="8" height="2"/>
	<rect x="9" y="8" width="8" height="12"/>
	<rect x="8" y="7" transform="matrix(-1.836970e-16 1 -1 -1.836970e-16 25 1)" width="8" height="12"/>
	<rect x="15" y="12" transform="matrix(-1.836970e-16 1 -1 -1.836970e-16 32 -6)" width="8" height="2"/>
	<rect x="17" y="7" width="2" height="2"/>
	<rect x="7" y="7" width="2" height="2"/>
	<rect x="5" y="5" width="2" height="2"/>
	<rect x="7" y="17" width="2" height="2"/>
	<rect x="5" y="19" width="2" height="2"/>
	<rect x="17" y="17" width="2" height="2"/>
	<rect x="19" y="19" width="2" height="2"/>
	<rect x="19" y="5" width="2" height="2"/>
	<rect x="10" y="8" class="st1" width="2" height="4"/>
	<rect x="10" y="8" transform="matrix(-1.836970e-16 1 -1 -1.836970e-16 21 -1)" class="st1" width="2" height="4"/>
</g>
<g id="Layer_4" class="st0">
</g>
<g id="Layer_3">
</g>
</svg>
