<?xml version="1.0" encoding="utf-8"?>
<!-- Generator: Adobe Illustrator 23.0.3, SVG Export Plug-In . SVG Version: 6.00 Build 0)  -->
<svg version="1.1" xmlns="http://www.w3.org/2000/svg" xmlns:xlink="http://www.w3.org/1999/xlink" x="0px" y="0px"
	 viewBox="0 0 34 34" style="enable-background:new 0 0 34 34;" xml:space="preserve">
<g id="Layer_6">
	<g>
		<path d="M25.07,28.25h-2.96c-0.34-5.17-0.53-8.31-0.58-9.42c0-0.34-0.02-0.84-0.07-1.51c-0.05-0.67-0.07-1.17-0.07-1.51
			c-0.02-0.39-0.03-0.74-0.02-1.05c0.01-0.32,0.01-0.67,0-1.05s-0.04-0.74-0.08-1.05c-0.21,1.34-1.17,6.54-2.89,15.61h-2.04
			c-0.14-0.68-0.4-1.93-0.8-3.76s-0.69-3.21-0.88-4.15c-0.19-0.94-0.42-2.15-0.68-3.64s-0.47-2.84-0.63-4.06l-0.88,15.61H9.63
			L11.5,5.57h2.62l1.97,9.25c0.02,0.18,0.08,0.45,0.19,0.82c0.1,0.36,0.16,0.63,0.19,0.82c0.29,1.63,0.58,3.47,0.85,5.51
			c0-0.04,0.17-1.11,0.51-3.2c0.04-0.27,0.11-0.69,0.19-1.24c0.08-0.56,0.14-0.97,0.19-1.24c0.04-0.18,0.11-0.45,0.19-0.8
			c0.08-0.35,0.13-0.62,0.15-0.8l1.77-9.11h2.65L25.07,28.25z"/>
	</g>
</g>
<g id="Layer_3">
</g>
</svg>
