<?xml version="1.0" encoding="utf-8"?>
<!-- Generator: Adobe Illustrator 23.0.3, SVG Export Plug-In . SVG Version: 6.00 Build 0)  -->
<svg version="1.1" xmlns="http://www.w3.org/2000/svg" xmlns:xlink="http://www.w3.org/1999/xlink" x="0px" y="0px"
	 viewBox="0 0 34 34" style="enable-background:new 0 0 34 34;" xml:space="preserve">
<g id="Layer_6">
	<g>
		<path d="M13.02,11.18v-0.85c0-1.7,0.29-2.96,0.88-3.79c0.59-0.83,1.7-1.24,3.33-1.24c0.95,0,1.73,0.19,2.35,0.56
			s1.05,0.93,1.31,1.67c0.26,0.74,0.42,1.42,0.49,2.06c0.07,0.63,0.1,1.44,0.1,2.41c0,1.27-0.07,2.31-0.2,3.13
			c-0.14,0.98-0.42,1.71-0.85,2.21c-0.43,0.5-1.12,0.77-2.07,0.82v3.98H15.7v-5.98c0.07,0,0.18,0.01,0.32,0.02
			c0.15,0.01,0.25,0.02,0.32,0.02c0.95,0,1.58-0.29,1.89-0.87c0.31-0.58,0.46-1.38,0.46-2.4c0-0.16-0.01-0.4-0.02-0.71
			s-0.02-0.54-0.02-0.68c0-2.49-0.54-3.74-1.63-3.74c-0.88,0-1.33,0.8-1.33,2.41c0,0.14,0.01,0.31,0.02,0.53
			c0.01,0.22,0.02,0.37,0.02,0.46H13.02z M18.83,26.65c0,0.52-0.18,0.96-0.53,1.31c-0.35,0.35-0.79,0.53-1.31,0.53
			c-0.5,0-0.92-0.18-1.27-0.54c-0.35-0.36-0.53-0.79-0.53-1.29s0.18-0.92,0.53-1.28c0.35-0.35,0.78-0.53,1.27-0.53
			s0.93,0.18,1.29,0.53C18.65,25.73,18.83,26.15,18.83,26.65z"/>
	</g>
</g>
<g id="Layer_3">
</g>
</svg>
