<svg xmlns="http://www.w3.org/2000/svg" viewBox="0 0 42 42"><defs><style>.cls-1{fill:none;}.cls-2{fill:#fff200;}.cls-3{fill:#231f20;}</style></defs><title>Untitled-1</title><g id="Layer_3" data-name="Layer 3"><polyline class="cls-1" points="37 5 37 37 5 37 5 5"/></g><g id="Layer_9" data-name="Layer 9"><rect class="cls-2" x="15" y="5" width="12" height="32"/><rect class="cls-2" x="5" y="15" width="32" height="12"/><rect class="cls-2" x="11" y="7" width="20" height="8"/><rect class="cls-2" x="11" y="27" width="20" height="8"/><rect class="cls-2" x="7" y="11" width="28" height="4"/><rect class="cls-2" x="7" y="27" width="28" height="4"/><rect class="cls-2" x="9" y="9" width="2" height="24"/><rect class="cls-2" x="31" y="9" width="2" height="24"/></g><g id="Layer_4" data-name="Layer 4"><rect class="cls-3" x="3" y="19" width="2" height="2"/><rect class="cls-3" x="3" y="17" width="2" height="2"/><rect class="cls-3" x="3" y="15" width="2" height="2"/><rect class="cls-3" x="5" y="13" width="2" height="2"/><rect class="cls-3" x="5" y="11" width="2" height="2"/><rect class="cls-3" x="7" y="9" width="2" height="2"/><rect class="cls-3" x="9" y="7" width="2" height="2"/><rect class="cls-3" x="11" y="5" width="2" height="2"/><rect class="cls-3" x="13" y="5" width="2" height="2"/><rect class="cls-3" x="15" y="3" width="2" height="2"/><rect class="cls-3" x="17" y="3" width="2" height="2"/><rect class="cls-3" x="19" y="3" width="2" height="2"/><rect class="cls-3" x="21" y="3" width="2" height="2" transform="translate(26 -18) rotate(90)"/><rect class="cls-3" x="23" y="3" width="2" height="2" transform="translate(28 -20) rotate(90)"/><rect class="cls-3" x="25" y="3" width="2" height="2" transform="translate(30 -22) rotate(90)"/><rect class="cls-3" x="27" y="5" width="2" height="2" transform="translate(34 -22) rotate(90)"/><rect class="cls-3" x="29" y="5" width="2" height="2" transform="translate(36 -24) rotate(90)"/><rect class="cls-3" x="31" y="7" width="2" height="2" transform="translate(40 -24) rotate(90)"/><rect class="cls-3" x="33" y="9" width="2" height="2" transform="translate(44 -24) rotate(90)"/><rect class="cls-3" x="35" y="11" width="2" height="2" transform="translate(48 -24) rotate(90)"/><rect class="cls-3" x="35" y="13" width="2" height="2" transform="translate(50 -22) rotate(90)"/><rect class="cls-3" x="37" y="15" width="2" height="2" transform="translate(54 -22) rotate(90)"/><rect class="cls-3" x="37" y="17" width="2" height="2" transform="translate(56 -20) rotate(90)"/><rect class="cls-3" x="37" y="19" width="2" height="2" transform="translate(58 -18) rotate(90)"/><rect class="cls-3" x="37" y="21" width="2" height="2" transform="translate(76 44) rotate(180)"/><rect class="cls-3" x="37" y="23" width="2" height="2" transform="translate(76 48) rotate(180)"/><rect class="cls-3" x="37" y="25" width="2" height="2" transform="translate(76 52) rotate(180)"/><rect class="cls-3" x="35" y="27" width="2" height="2" transform="translate(72 56) rotate(180)"/><rect class="cls-3" x="35" y="29" width="2" height="2" transform="translate(72 60) rotate(180)"/><rect class="cls-3" x="33" y="31" width="2" height="2" transform="translate(68 64) rotate(180)"/><rect class="cls-3" x="31" y="33" width="2" height="2" transform="translate(64 68) rotate(180)"/><rect class="cls-3" x="29" y="35" width="2" height="2" transform="translate(60 72) rotate(180)"/><rect class="cls-3" x="27" y="35" width="2" height="2" transform="translate(56 72) rotate(180)"/><rect class="cls-3" x="25" y="37" width="2" height="2" transform="translate(52 76) rotate(180)"/><rect class="cls-3" x="23" y="37" width="2" height="2" transform="translate(48 76) rotate(180)"/><rect class="cls-3" x="21" y="37" width="2" height="2" transform="translate(44 76) rotate(180)"/><rect class="cls-3" x="19" y="37" width="2" height="2" transform="translate(-18 58) rotate(-90)"/><rect class="cls-3" x="17" y="37" width="2" height="2" transform="translate(-20 56) rotate(-90)"/><rect class="cls-3" x="15" y="37" width="2" height="2" transform="translate(-22 54) rotate(-90)"/><rect class="cls-3" x="13" y="35" width="2" height="2" transform="translate(-22 50) rotate(-90)"/><rect class="cls-3" x="11" y="35" width="2" height="2" transform="translate(-24 48) rotate(-90)"/><rect class="cls-3" x="9" y="33" width="2" height="2" transform="translate(-24 44) rotate(-90)"/><rect class="cls-3" x="7" y="31" width="2" height="2" transform="translate(-24 40) rotate(-90)"/><rect class="cls-3" x="5" y="29" width="2" height="2" transform="translate(-24 36) rotate(-90)"/><rect class="cls-3" x="5" y="27" width="2" height="2" transform="translate(-22 34) rotate(-90)"/><rect class="cls-3" x="3" y="25" width="2" height="2" transform="translate(-22 30) rotate(-90)"/><rect class="cls-3" x="3" y="23" width="2" height="2" transform="translate(-20 28) rotate(-90)"/><rect class="cls-3" x="3" y="21" width="2" height="2" transform="translate(-18 26) rotate(-90)"/><rect class="cls-3" x="17" y="29" width="4" height="2"/><rect class="cls-3" x="15" y="27" width="2" height="2"/><rect class="cls-3" x="13" y="25" width="2" height="2"/><rect class="cls-3" x="21" y="29" width="4" height="2" transform="translate(46 60) rotate(180)"/><rect class="cls-3" x="25" y="27" width="2" height="2" transform="translate(52 56) rotate(180)"/><rect class="cls-3" x="27" y="25" width="2" height="2" transform="translate(56 52) rotate(180)"/><rect class="cls-3" x="25" y="15" width="4" height="6"/><rect class="cls-3" x="25" y="13" width="4" height="8" transform="translate(44 -10) rotate(90)"/><rect class="cls-3" x="13" y="15" width="4" height="6"/><rect class="cls-3" x="13" y="13" width="4" height="8" transform="translate(32 2) rotate(90)"/><rect class="cls-3" x="19" y="15" width="4" height="2"/><rect class="cls-3" x="29" y="19" width="2" height="2"/><rect class="cls-3" x="11" y="19" width="2" height="2"/><rect class="cls-3" x="31" y="17" width="2" height="2"/><rect class="cls-3" x="9" y="17" width="2" height="2"/><rect class="cls-3" x="33" y="17" width="2" height="2"/><rect class="cls-3" x="7" y="17" width="2" height="2"/><rect class="cls-3" x="35" y="19" width="2" height="2"/><rect class="cls-3" x="5" y="19" width="2" height="2"/></g></svg>