<?xml version="1.0" encoding="utf-8"?>
<!-- Generator: Adobe Illustrator 23.0.3, SVG Export Plug-In . SVG Version: 6.00 Build 0)  -->
<svg version="1.1" xmlns="http://www.w3.org/2000/svg" xmlns:xlink="http://www.w3.org/1999/xlink" x="0px" y="0px"
	 viewBox="0 0 34 34" style="enable-background:new 0 0 34 34;" xml:space="preserve">
<g id="Layer_6">
	<g>
		<path d="M12.69,11.66v-0.54c0-1.86,0.31-3.29,0.94-4.3c0.62-1.01,1.81-1.51,3.55-1.51c1.79,0,3.04,0.52,3.74,1.55
			c0.7,1.03,1.05,2.49,1.05,4.37c0,1.93-0.27,3.3-0.82,4.11c-0.34,0.5-0.91,0.91-1.7,1.22c0.97,0.32,1.67,0.82,2.07,1.5
			c0.48,0.82,0.71,2.1,0.71,3.84c0,2.11-0.4,3.74-1.19,4.9c-0.79,1.16-2.19,1.73-4.18,1.73c-3.08,0-4.62-1.79-4.62-5.37
			c0-0.25,0.01-0.44,0.03-0.58h2.86c0,0.07-0.01,0.18-0.02,0.34s-0.02,0.28-0.02,0.37c0,0.68,0.16,1.27,0.48,1.78
			c0.32,0.51,0.79,0.77,1.43,0.77c0.5,0,0.91-0.14,1.22-0.41c0.32-0.27,0.54-0.67,0.66-1.19c0.13-0.52,0.2-0.95,0.22-1.29
			c0.02-0.34,0.03-0.79,0.03-1.36c0-1.2-0.18-2.15-0.54-2.84c-0.36-0.69-1.09-1.04-2.18-1.04c-0.16,0-0.42,0.02-0.78,0.07v-2.65
			c1.47,0,2.42-0.25,2.84-0.75c0.42-0.5,0.63-1.51,0.63-3.03c0-2.27-0.6-3.4-1.8-3.4c-0.41,0-0.74,0.11-1,0.32
			c-0.26,0.22-0.44,0.54-0.53,0.97s-0.15,0.79-0.17,1.07c-0.02,0.28-0.03,0.66-0.03,1.14c0,0.09,0,0.16,0,0.2H12.69z"/>
	</g>
</g>
<g id="Layer_3">
</g>
</svg>
